<?xml version="1.0" encoding="utf-8"?>
<!-- Generator: Adobe Illustrator 27.5.0, SVG Export Plug-In . SVG Version: 6.00 Build 0)  -->
<svg version="1.1" id="Layer_1" xmlns="http://www.w3.org/2000/svg" xmlns:xlink="http://www.w3.org/1999/xlink" x="0px" y="0px"
	 viewBox="0 0 265.14 210" style="enable-background:new 0 0 265.14 210;" xml:space="preserve">
<style type="text/css">
	.st0{fill:url(#SVGID_1_);}
</style>
<g>
	<linearGradient id="SVGID_1_" gradientUnits="userSpaceOnUse" x1="97.7602" y1="-1.7891" x2="166.0995" y2="196.8716">
		<stop  offset="0" style="stop-color:#515BD4"/>
		<stop  offset="0.25" style="stop-color:#8134AF"/>
		<stop  offset="0.5" style="stop-color:#DD2A7B"/>
		<stop  offset="0.75" style="stop-color:#F58529"/>
		<stop  offset="1" style="stop-color:#FEDA77"/>
	</linearGradient>
	<path class="st0" d="M175.16,98.5c-0.77-0.37-1.55-0.72-2.33-1.06c-1.37-25.32-15.21-39.81-38.43-39.96c-0.1,0-0.21,0-0.32,0
		c-13.89,0-25.45,5.93-32.56,16.72l12.77,8.76c5.31-8.06,13.65-9.78,19.79-9.78c0.07,0,0.14,0,0.21,0
		c7.65,0.05,13.42,2.27,17.15,6.61c2.72,3.16,4.54,7.52,5.44,13.03c-6.78-1.15-14.11-1.51-21.95-1.06
		c-22.08,1.27-36.28,14.15-35.33,32.05c0.48,9.08,5.01,16.89,12.73,21.99c6.53,4.31,14.95,6.42,23.69,5.94
		c11.55-0.63,20.61-5.04,26.93-13.1c4.8-6.12,7.84-14.05,9.18-24.04c5.5,3.32,9.58,7.69,11.84,12.95
		c3.83,8.93,4.05,23.61-7.92,35.58c-10.49,10.48-23.11,15.02-42.17,15.16c-21.15-0.16-37.14-6.94-47.54-20.16
		C76.61,145.76,71.58,127.88,71.4,105c0.19-22.88,5.22-40.76,14.96-53.14c10.4-13.22,26.39-20,47.54-20.16
		c21.3,0.16,37.57,6.97,48.37,20.25c5.29,6.51,9.28,14.7,11.92,24.25l14.97-3.99c-3.19-11.76-8.21-21.88-15.04-30.29
		C180.26,24.91,160.02,16.18,133.94,16h-0.1c-26.03,0.18-46.04,8.94-59.49,26.03C62.38,57.24,56.21,78.41,56,104.94l0,0.06l0,0.06
		c0.21,26.53,6.38,47.7,18.35,62.91c13.45,17.09,33.46,25.85,59.49,26.03h0.1c23.14-0.16,39.45-6.22,52.89-19.64
		c17.58-17.56,17.05-39.58,11.26-53.09C193.93,111.57,186,103.7,175.16,98.5 M135.21,136.06c-9.68,0.55-19.73-3.8-20.23-13.1
		c-0.37-6.9,4.91-14.6,20.82-15.51c1.82-0.11,3.61-0.16,5.37-0.16c5.78,0,11.19,0.56,16.1,1.64
		C155.44,131.83,144.69,135.54,135.21,136.06"/>
</g>
</svg>
